# Generated by gen_mesh.py
# Vertices: 68  Normals: 44  UVs: 26  Faces: 112

v -0.180000 0.050000 -0.100000
v 0.180000 0.050000 -0.100000
v 0.180000 0.450000 -0.100000
v -0.180000 0.450000 -0.100000
v -0.180000 0.050000 0.100000
v 0.180000 0.050000 0.100000
v 0.180000 0.450000 0.100000
v -0.180000 0.450000 0.100000
v -0.150000 -0.040000 -0.087500
v 0.150000 -0.040000 -0.087500
v 0.150000 0.080000 -0.087500
v -0.150000 0.080000 -0.087500
v -0.150000 -0.040000 0.087500
v 0.150000 -0.040000 0.087500
v 0.150000 0.080000 0.087500
v -0.150000 0.080000 0.087500
v -0.112500 0.380000 0.000000
v -0.112500 0.455000 0.000000
v -0.138128 0.380000 0.061872
v -0.138128 0.455000 0.061872
v -0.200000 0.380000 0.087500
v -0.200000 0.455000 0.087500
v -0.261872 0.380000 0.061872
v -0.261872 0.455000 0.061872
v -0.287500 0.380000 0.000000
v -0.287500 0.455000 0.000000
v -0.261872 0.380000 -0.061872
v -0.261872 0.455000 -0.061872
v -0.200000 0.380000 -0.087500
v -0.200000 0.455000 -0.087500
v -0.138128 0.380000 -0.061872
v -0.138128 0.455000 -0.061872
v -0.200000 0.380000 0.000000
v -0.200000 0.455000 0.000000
v 0.287500 0.380000 0.000000
v 0.287500 0.455000 0.000000
v 0.261872 0.380000 0.061872
v 0.261872 0.455000 0.061872
v 0.200000 0.380000 0.087500
v 0.200000 0.455000 0.087500
v 0.138128 0.380000 0.061872
v 0.138128 0.455000 0.061872
v 0.112500 0.380000 0.000000
v 0.112500 0.455000 0.000000
v 0.138128 0.380000 -0.061872
v 0.138128 0.455000 -0.061872
v 0.200000 0.380000 -0.087500
v 0.200000 0.455000 -0.087500
v 0.261872 0.380000 -0.061872
v 0.261872 0.455000 -0.061872
v 0.200000 0.380000 0.000000
v 0.200000 0.455000 0.000000
v -0.170000 -0.060000 -0.112500
v 0.170000 -0.060000 -0.112500
v 0.170000 -0.020000 -0.112500
v -0.170000 -0.020000 -0.112500
v -0.170000 -0.060000 0.112500
v 0.170000 -0.060000 0.112500
v 0.170000 -0.020000 0.112500
v -0.170000 -0.020000 0.112500
v -0.030000 -0.060000 -0.110000
v 0.030000 -0.060000 -0.110000
v 0.030000 -0.020000 -0.110000
v -0.030000 -0.020000 -0.110000
v -0.030000 -0.060000 -0.090000
v 0.030000 -0.060000 -0.090000
v 0.030000 -0.020000 -0.090000
v -0.030000 -0.020000 -0.090000

vn 0.000000 0.000000 -1.000000
vn 0.000000 0.000000 1.000000
vn -1.000000 0.000000 0.000000
vn 1.000000 0.000000 0.000000
vn 0.000000 -1.000000 0.000000
vn 0.000000 1.000000 0.000000
vn 0.000000 0.000000 -1.000000
vn 0.000000 0.000000 1.000000
vn -1.000000 0.000000 0.000000
vn 1.000000 0.000000 0.000000
vn 0.000000 -1.000000 0.000000
vn 0.000000 1.000000 0.000000
vn 0.000000 -1.000000 0.000000
vn 0.000000 1.000000 0.000000
vn 0.923880 0.000000 0.382683
vn 0.382683 0.000000 0.923880
vn -0.382683 0.000000 0.923880
vn -0.923880 0.000000 0.382683
vn -0.923880 0.000000 -0.382683
vn -0.382683 0.000000 -0.923880
vn 0.382683 0.000000 -0.923880
vn 0.923880 0.000000 -0.382683
vn 0.000000 -1.000000 0.000000
vn 0.000000 1.000000 0.000000
vn 0.923880 0.000000 0.382683
vn 0.382683 0.000000 0.923880
vn -0.382683 0.000000 0.923880
vn -0.923880 0.000000 0.382683
vn -0.923880 0.000000 -0.382683
vn -0.382683 0.000000 -0.923880
vn 0.382683 0.000000 -0.923880
vn 0.923880 0.000000 -0.382683
vn 0.000000 0.000000 -1.000000
vn 0.000000 0.000000 1.000000
vn -1.000000 0.000000 0.000000
vn 1.000000 0.000000 0.000000
vn 0.000000 -1.000000 0.000000
vn 0.000000 1.000000 0.000000
vn 0.000000 0.000000 -1.000000
vn 0.000000 0.000000 1.000000
vn -1.000000 0.000000 0.000000
vn 1.000000 0.000000 0.000000
vn 0.000000 -1.000000 0.000000
vn 0.000000 1.000000 0.000000

vt 0.000000 0.000000
vt 1.000000 0.000000
vt 1.000000 1.000000
vt 0.000000 1.000000
vt 0.000000 0.000000
vt 1.000000 0.000000
vt 1.000000 1.000000
vt 0.000000 1.000000
vt 0.000000 0.000000
vt 1.000000 0.000000
vt 1.000000 1.000000
vt 0.000000 1.000000
vt 0.500000 0.500000
vt 0.000000 0.000000
vt 1.000000 0.000000
vt 1.000000 1.000000
vt 0.000000 1.000000
vt 0.500000 0.500000
vt 0.000000 0.000000
vt 1.000000 0.000000
vt 1.000000 1.000000
vt 0.000000 1.000000
vt 0.000000 0.000000
vt 1.000000 0.000000
vt 1.000000 1.000000
vt 0.000000 1.000000

f 2/1/1 1/2/1 4/3/1
f 2/1/1 4/3/1 3/4/1
f 5/1/2 6/2/2 7/3/2
f 5/1/2 7/3/2 8/4/2
f 1/1/3 5/2/3 8/3/3
f 1/1/3 8/3/3 4/4/3
f 6/1/4 2/2/4 3/3/4
f 6/1/4 3/3/4 7/4/4
f 1/1/5 2/2/5 6/3/5
f 1/1/5 6/3/5 5/4/5
f 4/1/6 8/2/6 7/3/6
f 4/1/6 7/3/6 3/4/6
f 10/5/7 9/6/7 12/7/7
f 10/5/7 12/7/7 11/8/7
f 13/5/8 14/6/8 15/7/8
f 13/5/8 15/7/8 16/8/8
f 9/5/9 13/6/9 16/7/9
f 9/5/9 16/7/9 12/8/9
f 14/5/10 10/6/10 11/7/10
f 14/5/10 11/7/10 15/8/10
f 9/5/11 10/6/11 14/7/11
f 9/5/11 14/7/11 13/8/11
f 12/5/12 16/6/12 15/7/12
f 12/5/12 15/7/12 11/8/12
f 17/9/15 20/11/15 19/10/15
f 17/9/15 18/12/15 20/11/15
f 33/13/13 17/9/13 19/10/13
f 34/13/14 20/10/14 18/9/14
f 19/9/16 22/11/16 21/10/16
f 19/9/16 20/12/16 22/11/16
f 33/13/13 19/9/13 21/10/13
f 34/13/14 22/10/14 20/9/14
f 21/9/17 24/11/17 23/10/17
f 21/9/17 22/12/17 24/11/17
f 33/13/13 21/9/13 23/10/13
f 34/13/14 24/10/14 22/9/14
f 23/9/18 26/11/18 25/10/18
f 23/9/18 24/12/18 26/11/18
f 33/13/13 23/9/13 25/10/13
f 34/13/14 26/10/14 24/9/14
f 25/9/19 28/11/19 27/10/19
f 25/9/19 26/12/19 28/11/19
f 33/13/13 25/9/13 27/10/13
f 34/13/14 28/10/14 26/9/14
f 27/9/20 30/11/20 29/10/20
f 27/9/20 28/12/20 30/11/20
f 33/13/13 27/9/13 29/10/13
f 34/13/14 30/10/14 28/9/14
f 29/9/21 32/11/21 31/10/21
f 29/9/21 30/12/21 32/11/21
f 33/13/13 29/9/13 31/10/13
f 34/13/14 32/10/14 30/9/14
f 31/9/22 18/11/22 17/10/22
f 31/9/22 32/12/22 18/11/22
f 33/13/13 31/9/13 17/10/13
f 34/13/14 18/10/14 32/9/14
f 35/14/25 38/16/25 37/15/25
f 35/14/25 36/17/25 38/16/25
f 51/18/23 35/14/23 37/15/23
f 52/18/24 38/15/24 36/14/24
f 37/14/26 40/16/26 39/15/26
f 37/14/26 38/17/26 40/16/26
f 51/18/23 37/14/23 39/15/23
f 52/18/24 40/15/24 38/14/24
f 39/14/27 42/16/27 41/15/27
f 39/14/27 40/17/27 42/16/27
f 51/18/23 39/14/23 41/15/23
f 52/18/24 42/15/24 40/14/24
f 41/14/28 44/16/28 43/15/28
f 41/14/28 42/17/28 44/16/28
f 51/18/23 41/14/23 43/15/23
f 52/18/24 44/15/24 42/14/24
f 43/14/29 46/16/29 45/15/29
f 43/14/29 44/17/29 46/16/29
f 51/18/23 43/14/23 45/15/23
f 52/18/24 46/15/24 44/14/24
f 45/14/30 48/16/30 47/15/30
f 45/14/30 46/17/30 48/16/30
f 51/18/23 45/14/23 47/15/23
f 52/18/24 48/15/24 46/14/24
f 47/14/31 50/16/31 49/15/31
f 47/14/31 48/17/31 50/16/31
f 51/18/23 47/14/23 49/15/23
f 52/18/24 50/15/24 48/14/24
f 49/14/32 36/16/32 35/15/32
f 49/14/32 50/17/32 36/16/32
f 51/18/23 49/14/23 35/15/23
f 52/18/24 36/15/24 50/14/24
f 54/19/33 53/20/33 56/21/33
f 54/19/33 56/21/33 55/22/33
f 57/19/34 58/20/34 59/21/34
f 57/19/34 59/21/34 60/22/34
f 53/19/35 57/20/35 60/21/35
f 53/19/35 60/21/35 56/22/35
f 58/19/36 54/20/36 55/21/36
f 58/19/36 55/21/36 59/22/36
f 53/19/37 54/20/37 58/21/37
f 53/19/37 58/21/37 57/22/37
f 56/19/38 60/20/38 59/21/38
f 56/19/38 59/21/38 55/22/38
f 62/23/39 61/24/39 64/25/39
f 62/23/39 64/25/39 63/26/39
f 65/23/40 66/24/40 67/25/40
f 65/23/40 67/25/40 68/26/40
f 61/23/41 65/24/41 68/25/41
f 61/23/41 68/25/41 64/26/41
f 66/23/42 62/24/42 63/25/42
f 66/23/42 63/25/42 67/26/42
f 61/23/43 62/24/43 66/25/43
f 61/23/43 66/25/43 65/26/43
f 64/23/44 68/24/44 67/25/44
f 64/23/44 67/25/44 63/26/44
